<?xml version="1.0" encoding="UTF-8"?>
<!DOCTYPE svg PUBLIC "-//W3C//DTD SVG 1.1//EN"
		"http://www.w3.org/Graphics/SVG/1.1/DTD/svg11.dtd">
<svg version="1.1" id="Layer_1"
		xmlns="http://www.w3.org/2000/svg" xmlns:xlink="http://www.w3.org/1999/xlink" x="0px" y="0px"
		width="1700px" height="1307.1707519734px" viewBox="0 0 228.046875 158.8"
		style="enable-background:new 0 0 188.046875 138.8;" xml:space="preserve"><style type='text/css'>.title{fill:#464646;}.slogan{fill:#464646;}</style><g transform="scale(2.016002016002) translate(20.167063232422,0)"><g>
	<path fill-rule="evenodd" clip-rule="evenodd" fill="#b38a00" d="M24.871,31.746l-3.993-13.35
		c-5.318,1.805-10.332,6.242-14.152,13.35H6.693H0.074H0c0.067-0.125,0.14-0.244,0.208-0.367L11.605,0h6.619l4.055,12.931
		c-0.954,0.217-1.897,0.505-2.825,0.866l-2.849-9.439l-5.432,15.01c9.488-6.22,21.21-6.286,30.601-0.19L36.414,4.357l-2.84,9.372
		c-0.928-0.354-1.871-0.636-2.826-0.844L34.794,0h6.617l11.531,31.746h-6.617h-0.107c-3.801-7-8.779-11.436-14.066-13.285
		L28.21,31.746h-0.031h-3.276H24.871L24.871,31.746z M23.796,17.673l2.74,8.832l2.708-8.799
		C27.434,17.4,25.606,17.388,23.796,17.673z"/>
</g>
</g><g transform="scale(0.0395) translate(0, 2658.2278481013)"><path transform="translate(0,0) rotate(180) scale(-1, 1)" d="M428 398l279 304h64v-702h-183v312l-149 -156h-20l-148 156v-312h-183v702h66z" class='title'/><path transform="translate(860,0) rotate(180) scale(-1, 1)" d="M507 344l-353 -345h-64v701h183v-343l354 346h65v-703h-185v344z" class='title'/><path transform="translate(1642,0) rotate(180) scale(-1, 1)" d="M272 0h-182v700h182v-265h13c179 0 170 134 170 265h184c0 -143 4 -275 -135 -364l190 -308v-28h-199l-154 271c-24 -4 -46 -4 -69 -4v-267z" class='title'/><path transform="translate(2350,0) rotate(180) scale(-1, 1)" d="M428 398l279 304h64v-702h-183v312l-149 -156h-20l-148 156v-312h-183v702h66z" class='title'/><path transform="translate(3210,0) rotate(180) scale(-1, 1)" d="M507 344l-353 -345h-64v701h183v-343l354 346h65v-703h-185v344z" class='title'/><path transform="translate(3992,0) rotate(180) scale(-1, 1)" d="M354 410l-178 -410h-175v26l315 683h77l316 -683v-26h-175z" class='title'/></g><g transform="scale(0.017) translate(1883.7316176471, 7576.4705882353)"><path transform="translate(0,0) rotate(180) scale(-1, 1)" d="M475 73c6 0 10 -4 10 -10v-173c0 -6 -4 -10 -10 -10h-60c-6 0 -10 4 -10 10v110h-315v-110c0 -6 -4 -10 -10 -10h-60c-6 0 -10 4 -10 10v173c0 6 4 10 10 10h35c20 7 29 30 34 96l26 308c1 8 6 11 11 11h295c7 0 10 -5 10 -11v-404h44zM172 172c-4 -44 -13 -76 -27 -99 h201v342h-154z" class='slogan'/><path transform="translate(516,0) rotate(180) scale(-1, 1)" d="M459 488c6 0 10 -4 10 -10v-468c0 -6 -4 -10 -10 -10h-64c-6 0 -10 4 -10 10v253l9 111h-2l-57 -94l-176 -274c-2 -4 -6 -6 -9 -6h-65c-6 0 -10 4 -10 10v468c0 6 4 10 10 10h64c6 0 10 -4 10 -10v-255l-8 -112h2l58 96l174 273c4 6 8 8 14 8h60z" class='slogan'/><path transform="translate(1060,0) rotate(180) scale(-1, 1)" d="M234 61c75 0 113 23 113 67v12c0 46 -40 74 -110 74h-78c-6 0 -10 4 -10 10v47c0 6 4 10 10 10h58c78 0 123 25 123 69v10c0 40 -32 67 -98 67c-64 0 -102 -21 -102 -59c0 -10 -3 -15 -9 -15h-64c-7 0 -12 4 -13 17c-6 76 66 130 195 130c114 0 172 -43 172 -128v-11 c0 -49 -34 -97 -83 -114c57 -13 94 -55 94 -107v-12c0 -90 -74 -140 -197 -140c-129 0 -199 53 -189 129c2 13 6 18 13 18h64c6 0 9 -5 9 -15c1 -39 32 -59 102 -59z" class='slogan'/><path transform="translate(1551,0) rotate(180) scale(-1, 1)" d="M419 121c0 -47 2 -83 7 -110c1 -7 -3 -11 -10 -11h-58c-8 0 -10 6 -12 14c-2 9 -6 38 -8 64c-63 -64 -113 -90 -171 -90c-78 0 -119 47 -119 137c0 104 56 146 208 160l78 7v41c0 67 -24 92 -90 92c-60 0 -91 -21 -90 -62c0 -6 -3 -10 -9 -10h-66c-7 0 -10 5 -11 19 c-7 76 66 128 179 128c116 0 172 -54 172 -165v-214zM133 131c0 -46 18 -68 56 -68c40 0 78 23 145 87v77l-80 -7c-92 -8 -121 -29 -121 -89z" class='slogan'/><path transform="translate(2045,0) rotate(180) scale(-1, 1)" d="M385 675c7 6 12 5 12 -4v-54c0 -5 -1 -9 -4 -12c-13 -14 -51 -49 -120 -49s-107 35 -120 49c-3 3 -4 7 -4 12v54c0 9 5 10 12 4c18 -18 58 -48 112 -48s94 30 112 48zM459 488c6 0 10 -4 10 -10v-468c0 -6 -4 -10 -10 -10h-64c-6 0 -10 4 -10 10v253l9 111h-2l-57 -94 l-176 -274c-2 -4 -6 -6 -9 -6h-65c-6 0 -10 4 -10 10v468c0 6 4 10 10 10h64c6 0 10 -4 10 -10v-255l-8 -112h2l58 96l174 273c4 6 8 8 14 8h60z" class='slogan'/><path transform="translate(2589,0) rotate(180) scale(-1, 1)" d="M459 488c6 0 10 -4 10 -10v-468c0 -6 -4 -10 -10 -10h-65c-6 0 -10 4 -10 10v203h-224v-203c0 -6 -4 -10 -10 -10h-65c-6 0 -10 4 -10 10v468c0 6 4 10 10 10h65c6 0 10 -4 10 -10v-192h224v192c0 6 4 10 10 10h65z" class='slogan'/><path transform="translate(3343,0) rotate(180) scale(-1, 1)" d="M459 488c6 0 10 -4 10 -10v-468c0 -6 -4 -10 -10 -10h-64c-6 0 -10 4 -10 10v253l9 111h-2l-57 -94l-176 -274c-2 -4 -6 -6 -9 -6h-65c-6 0 -10 4 -10 10v468c0 6 4 10 10 10h64c6 0 10 -4 10 -10v-255l-8 -112h2l58 96l174 273c4 6 8 8 14 8h60z" class='slogan'/><path transform="translate(4097,0) rotate(180) scale(-1, 1)" d="M323 500c98 0 150 -61 150 -186v-125c0 -129 -63 -201 -179 -201c-46 0 -100 11 -134 30v-193c0 -6 -4 -10 -10 -10h-65c-6 0 -10 4 -10 10v550c0 30 -3 72 -7 101c-1 8 4 12 10 12h61c7 0 10 -3 11 -10c2 -11 6 -36 7 -52c60 52 107 74 166 74zM388 199v110 c0 80 -28 116 -83 116c-43 0 -80 -20 -145 -76v-259c36 -18 80 -27 116 -27c77 0 112 45 112 136z" class='slogan'/><path transform="translate(4634,0) rotate(180) scale(-1, 1)" d="M147 223v-32c0 -90 35 -128 119 -128c63 0 97 21 98 61c0 7 5 11 11 11h65c5 0 9 -4 10 -9c5 -85 -68 -138 -189 -138c-128 0 -195 60 -199 178v140c0 126 70 194 199 194s198 -66 198 -189v-78c0 -6 -4 -10 -10 -10h-302zM262 425c-78 0 -115 -42 -115 -129h227 c0 88 -35 129 -112 129z" class='slogan'/><path transform="translate(5153,0) rotate(180) scale(-1, 1)" d="M317 192l-147 288c-3 6 -6 8 -11 8h-71c-6 0 -10 -3 -10 -10l-8 -468c0 -6 4 -10 10 -10h63c6 0 10 3 10 10l2 270l-3 79h2l37 -80l118 -213c4 -7 12 -7 16 0l118 213l37 80h2l-3 -79l2 -270c0 -7 4 -10 10 -10h63c6 0 10 4 10 10l-8 468c0 7 -4 10 -10 10h-71 c-5 0 -8 -2 -11 -8z" class='slogan'/><path transform="translate(5787,0) rotate(180) scale(-1, 1)" d="M268 500c134 0 206 -65 206 -198v-116c0 -133 -70 -198 -206 -198c-135 0 -206 65 -206 198v116c0 133 70 198 206 198zM389 294c0 88 -36 131 -121 131s-121 -43 -121 -131v-100c0 -88 36 -131 121 -131s121 43 121 131v100z" class='slogan'/><path transform="translate(6323,0) rotate(180) scale(-1, 1)" d="M459 488c6 0 10 -4 10 -10v-468c0 -6 -4 -10 -10 -10h-65c-6 0 -10 4 -10 10v203h-224v-203c0 -6 -4 -10 -10 -10h-65c-6 0 -10 4 -10 10v468c0 6 4 10 10 10h65c6 0 10 -4 10 -10v-192h224v192c0 6 4 10 10 10h65z" class='slogan'/><path transform="translate(6867,0) rotate(180) scale(-1, 1)" d="M400 488c6 0 10 -4 10 -10v-53c0 -6 -4 -10 -10 -10h-142v-405c0 -6 -4 -10 -10 -10h-65c-6 0 -10 4 -10 10v405h-143c-6 0 -10 4 -10 10v53c0 6 4 10 10 10h370z" class='slogan'/></g></svg>