<?xml version="1.0" encoding="utf-8"?>
<!-- Generator: Adobe Illustrator 21.0.2, SVG Export Plug-In . SVG Version: 6.00 Build 0)  -->
<svg version="1.1" id="Layer_1" xmlns="http://www.w3.org/2000/svg" xmlns:xlink="http://www.w3.org/1999/xlink" x="0px" y="0px"
	 viewBox="0 0 1480 310" style="enable-background:new 0 0 1480 310;" xml:space="preserve">
<style type="text/css">
	.st0{fill:#B38A00;}
	.st1{fill:#464646;}
</style>
<g transform="scale(1.6923861511437) translate(0, 0.93675462289632)">
	<g>
		<path class="st0" d="M131.2,172.7l-20.3-68c-27.1,9.2-52.6,31.8-72.1,68h-0.2H4.8H4.4c0.3-0.6,0.7-1.2,1.1-1.9L63.6,10.9h33.7
			L118,76.8c-4.9,1.1-9.7,2.6-14.4,4.4L89,33.1l-27.7,76.5c48.3-31.7,108.1-32,155.9-1l-27.3-75.5l-14.5,47.8
			c-4.7-1.8-9.5-3.2-14.4-4.3l20.6-65.7h33.7l58.8,161.8h-33.7h-0.5c-19.4-35.7-44.7-58.3-71.7-67.7l-20.1,67.7h-0.2h-16.6
			L131.2,172.7L131.2,172.7z M125.7,101l14,45l13.8-44.8C144.2,99.6,134.9,99.5,125.7,101z"/>
	</g>
</g>
<g transform="scale(0.0395) translate(2673.417721519, 951.89873417722)">
	<path class="st1" d="M12664.6,1141.8l1421.6-1548.9h326.1v3576.8h-932.4V1580l-759.2,794.9h-102l-754.1-794.9v1589.7h-932.4V-407.1
		h336.3L12664.6,1141.8z"/>
	<path class="st1" d="M17449,1416.9l-1798.6,1757.8h-326.1V-396.9h932.4v1747.7l1803.7-1762.9h331.2v3581.9H17449V1416.9z"/>
	<path class="st1" d="M20236,3169.7h-927.3V-396.9h927.3V953.3h66.2c912,0,866.2-682.8,866.2-1350.2h937.5
		c0,728.6,20.4,1401.2-687.9,1854.7l968.1,1569.3v142.7h-1013.9L20587.5,1789c-122.3,20.4-234.4,20.4-351.6,20.4v1360.3H20236z"/>
	<path class="st1" d="M24638.3,1141.8l1421.6-1548.9h326.1v3576.8h-932.4V1580l-759.2,794.9h-101.9l-754.1-794.9v1589.7H22906
		V-407.1h336.3L24638.3,1141.8z"/>
	<path class="st1" d="M29422.7,1416.9l-1798.6,1757.8H27298V-396.9h932.4v1747.7l1803.7-1762.9h331.2v3581.9h-942.6V1416.9z"/>
	<path class="st1" d="M32627.6,1080.7l-906.9,2089H30829v-132.5l1605-3480h392.3l1610.1,3480v132.5h-891.7L32627.6,1080.7z"/>
</g>
<g transform="scale(0.017) translate(6211.7647058824, 3423.5294117647)">
	<path class="st1" d="M27770.4,12868.1c30.6,0,51,20.4,51,51v881.5c0,30.6-20.4,51-51,51h-305.7c-30.6,0-51-20.4-51-51v-560.5h-1605
		v560.5c0,30.6-20.4,51-51,51H25452c-30.6,0-51-20.4-51-51v-881.5c0-30.6,20.4-51,51-51h178.3c101.9-35.7,147.8-152.9,173.2-489.1
		l132.5-1569.3c5.1-40.8,30.6-56,56-56h1503.1c35.7,0,51,25.5,51,56v2058.4H27770.4z M26226.6,12363.7
		c-20.4,224.2-66.2,387.2-137.6,504.4h1024.1v-1742.6h-784.7L26226.6,12363.7z"/>
	<path class="st1" d="M30318,10753.6c30.6,0,51,20.4,51,51v2384.5c0,30.6-20.4,51-51,51h-326.1c-30.6,0-51-20.4-51-51V11900
		l45.9-565.6h-10.2l-290.4,479l-896.8,1396.1c-10.2,20.4-30.6,30.6-45.9,30.6h-331.1c-30.6,0-51-20.4-51-51v-2384.6
		c0-30.6,20.4-51,51-51h326.1c30.6,0,51,20.4,51,51v1299.3l-40.8,570.7h10.2l295.5-489.1l886.6-1391c20.4-30.6,40.8-40.8,71.3-40.8
		L30318,10753.6L30318,10753.6z"/>
	<path class="st1" d="M31943.4,12929.3c382.1,0,575.8-117.2,575.8-341.4v-61.1c0-234.4-203.8-377-560.5-377h-397.4
		c-30.6,0-51-20.4-51-51v-239.5c0-30.6,20.4-51,51-51h295.5c397.4,0,626.7-127.4,626.7-351.6v-51c0-203.8-163-341.4-499.3-341.4
		c-326.1,0-519.7,107-519.7,300.6c0,51-15.3,76.4-45.9,76.4h-326.1c-35.7,0-61.1-20.4-66.2-86.6
		c-30.6-387.2,336.3-662.4,993.6-662.4c580.9,0,876.4,219.1,876.4,652.2v56c0,249.7-173.2,494.2-422.9,580.9
		c290.4,66.2,478.9,280.2,478.9,545.2v61.1c0,458.6-377,713.3-1003.8,713.3c-657.3,0-1013.9-270-963-657.3
		c10.2-66.2,30.6-91.7,66.2-91.7h326.1c30.6,0,45.9,25.5,45.9,76.4C31428.8,12827.4,31586.8,12929.3,31943.4,12929.3z"/>
	<path class="st1" d="M35387.8,12623.5c0,239.5,10.2,422.9,35.7,560.5c5.1,35.7-15.3,56-51,56H35077c-40.8,0-51-30.6-61.1-71.3
		c-10.2-45.9-30.6-193.6-40.8-326.1c-321,326.1-575.8,458.6-871.3,458.6c-397.4,0-606.3-239.5-606.3-698
		c0-529.9,285.3-743.9,1059.8-815.2l397.4-35.7v-208.9c0-341.4-122.3-468.8-458.6-468.8c-305.7,0-463.7,107-458.6,315.9
		c0,30.6-15.3,51-45.9,51h-336.2c-35.7,0-51-25.5-56.1-96.8c-35.7-387.2,336.3-652.2,912-652.2c591,0,876.4,275.1,876.4,840.7
		v1090.3H35387.8z M33930.5,12572.6c0,234.4,91.7,346.5,285.3,346.5c203.8,0,397.4-117.2,738.8-443.3v-392.3l-407.6,35.7
		C34078.3,12159.9,33930.5,12266.9,33930.5,12572.6z"/>
	<path class="st1" d="M37731.6,9800.8c35.7-30.6,61.1-25.5,61.1,20.4v275.1c0,25.5-5.1,45.9-20.4,61.1
		c-66.2,71.3-259.9,249.7-611.4,249.7c-351.6,0-545.2-178.3-611.4-249.7c-15.3-15.3-20.4-35.7-20.4-61.1v-275.1
		c0-45.9,25.5-51,61.1-20.4c91.7,91.7,295.5,244.6,570.7,244.6S37639.9,9892.5,37731.6,9800.8z M38108.6,10753.6
		c30.6,0,50.9,20.4,50.9,51v2384.5c0,30.6-20.4,51-50.9,51h-326.1c-30.6,0-51-20.4-51-51V11900l45.9-565.6h-10.2l-290.4,479
		l-896.8,1396.1c-10.2,20.4-30.6,30.6-45.9,30.6h-331.2c-30.6,0-51-20.4-51-51v-2384.6c0-30.6,20.4-51,51-51h326.1
		c30.6,0,51,20.4,51,51v1299.3l-40.8,570.7h10.2l295.5-489.1l886.6-1391c20.4-30.6,40.8-40.8,71.3-40.8L38108.6,10753.6
		L38108.6,10753.6z"/>
	<path class="st1" d="M40880.4,10753.6c30.6,0,50.9,20.4,50.9,51v2384.5c0,30.6-20.4,51-50.9,51h-331.2c-30.6,0-50.9-20.4-50.9-51
		v-1034.3H39357v1034.3c0,30.6-20.4,51-51,51h-331.2c-30.6,0-51-20.4-51-51v-2384.6c0-30.6,20.4-51,51-51h331.2
		c30.6,0,51,20.4,51,51v978.3h1141.3v-978.3c0-30.6,20.4-51,50.9-51L40880.4,10753.6L40880.4,10753.6z"/>
	<path class="st1" d="M44722.2,10753.6c30.6,0,51,20.4,51,51v2384.5c0,30.6-20.4,51-51,51h-326.1c-30.6,0-51-20.4-51-51V11900
		l45.9-565.6h-10.2l-290.4,479l-896.8,1396.1c-10.2,20.4-30.6,30.6-45.9,30.6h-331.2c-30.6,0-50.9-20.4-50.9-51v-2384.6
		c0-30.6,20.4-51,50.9-51h326.1c30.6,0,51,20.4,51,51v1299.3l-40.8,570.7h10.2l295.5-489.1l886.6-1391
		c20.4-30.6,40.8-40.8,71.3-40.8L44722.2,10753.6L44722.2,10753.6z"/>
	<path class="st1" d="M47871,10692.5c499.3,0,764.3,310.8,764.3,947.7v636.9c0,657.3-321,1024.1-912,1024.1
		c-234.4,0-509.5-56-682.8-152.9v983.4c0,30.6-20.4,51-51,51h-331.1c-30.6,0-51-20.4-51-51v-2802.4c0-152.9-15.3-366.9-35.7-514.6
		c-5.1-40.8,20.4-61.1,51-61.1h310.8c35.7,0,51,15.3,56,51c10.2,56,30.6,183.4,35.7,265
		C47330.9,10804.6,47570.4,10692.5,47871,10692.5z M48202.2,12226.1v-560.5c0-407.6-142.7-591-422.9-591
		c-219.1,0-407.6,101.9-738.8,387.2v1319.7c183.4,91.7,407.6,137.6,591,137.6C48023.9,12919.1,48202.2,12689.8,48202.2,12226.1z"/>
	<path class="st1" d="M49710.4,12103.8v163c0,458.6,178.3,652.2,606.3,652.2c321,0,494.2-107,499.3-310.8c0-35.7,25.5-56,56-56
		h331.2c25.5,0,45.9,20.4,50.9,45.9c25.5,433.1-346.5,703.1-963,703.1c-652.2,0-993.6-305.7-1013.9-906.9V11681
		c0-642,356.7-988.5,1013.9-988.5s1008.9,336.3,1008.9,963v397.4c0,30.6-20.4,51-51,51h-1538.6V12103.8z M50296.4,11074.6
		c-397.4,0-585.9,214-585.9,657.3h1156.6C50867,11283.5,50688.7,11074.6,50296.4,11074.6z"/>
	<path class="st1" d="M53221,12261.8l-749-1467.4c-15.3-30.6-30.6-40.8-56.1-40.8h-361.8c-30.6,0-51,15.3-51,51l-40.8,2384.6
		c0,30.6,20.4,51,51,51h321c30.6,0,51-15.3,51-51l10.2-1375.7l-15.3-402.5h10.2l188.5,407.6l601.2,1085.3
		c20.4,35.7,61.1,35.7,81.5,0l601.2-1085.3l188.5-407.6h10.2l-15.3,402.5l10.2,1375.7c0,35.7,20.4,51,50.9,51h321
		c30.6,0,51-20.4,51-51l-40.8-2384.6c0-35.7-20.4-51-51-51h-361.8c-25.5,0-40.8,10.2-56,40.8L53221,12261.8z"/>
	<path class="st1" d="M56201.7,10692.5c682.8,0,1049.6,331.2,1049.6,1008.9v591c0,677.7-356.7,1008.9-1049.6,1008.9
		c-687.9,0-1049.6-331.2-1049.6-1008.9v-591C55152.1,11023.6,55508.8,10692.5,56201.7,10692.5z M56818.2,11742.1
		c0-448.4-183.4-667.5-616.5-667.5s-616.5,219.1-616.5,667.5v509.5c0,448.4,183.4,667.5,616.5,667.5s616.5-219.1,616.5-667.5
		V11742.1z"/>
	<path class="st1" d="M59905.9,10753.6c30.6,0,51,20.4,51,51v2384.5c0,30.6-20.4,51-51,51h-331.2c-30.6,0-51-20.4-51-51v-1034.3
		h-1141.3v1034.3c0,30.6-20.4,51-50.9,51h-331.2c-30.6,0-50.9-20.4-50.9-51v-2384.6c0-30.6,20.4-51,50.9-51h331.2
		c30.6,0,50.9,20.4,50.9,51v978.3h1141.3v-978.3c0-30.6,20.4-51,51-51L59905.9,10753.6L59905.9,10753.6z"/>
	<path class="st1" d="M62377.1,10753.6c30.6,0,51,20.4,51,51v270c0,30.6-20.4,51-51,51h-723.5v2063.5c0,30.6-20.4,51-51,51h-331.2
		c-30.6,0-51-20.4-51-51v-2063.6h-728.6c-30.6,0-51-20.4-51-51v-270c0-30.6,20.4-51,51-51L62377.1,10753.6L62377.1,10753.6z"/>
</g>
</svg>
