<?xml version="1.0" encoding="UTF-8" standalone="no"?>
<!-- Created with Inkscape (http://www.inkscape.org/) -->

<svg
   xmlns:dc="http://purl.org/dc/elements/1.1/"
   xmlns:cc="http://creativecommons.org/ns#"
   xmlns:rdf="http://www.w3.org/1999/02/22-rdf-syntax-ns#"
   xmlns:svg="http://www.w3.org/2000/svg"
   xmlns="http://www.w3.org/2000/svg"
   xmlns:sodipodi="http://sodipodi.sourceforge.net/DTD/sodipodi-0.dtd"
   xmlns:inkscape="http://www.inkscape.org/namespaces/inkscape"
   width="210mm"
   height="297mm"
   viewBox="0 0 210 297"
   version="1.1"
   id="svg8"
   inkscape:version="0.92.4 (5da689c313, 2019-01-14)"
   sodipodi:docname="arrow_ыкс.svg">
  <defs
     id="defs2" />
  <sodipodi:namedview
     id="base"
     pagecolor="#ffffff"
     bordercolor="#666666"
     borderopacity="1.0"
     inkscape:pageopacity="0.0"
     inkscape:pageshadow="2"
     inkscape:zoom="3.959798"
     inkscape:cx="189.85202"
     inkscape:cy="107.37672"
     inkscape:document-units="mm"
     inkscape:current-layer="layer1"
     showgrid="false"
     inkscape:window-width="1858"
     inkscape:window-height="1178"
     inkscape:window-x="54"
     inkscape:window-y="-8"
     inkscape:window-maximized="1" />
  <metadata
     id="metadata5">
    <rdf:RDF>
      <cc:Work
         rdf:about="">
        <dc:format>image/svg+xml</dc:format>
        <dc:type
           rdf:resource="http://purl.org/dc/dcmitype/StillImage" />
        <dc:title></dc:title>
      </cc:Work>
    </rdf:RDF>
  </metadata>
  <g
     inkscape:label="Layer 1"
     inkscape:groupmode="layer"
     id="layer1">
    <ellipse
       style="fill:#ff7f2a;stroke-width:0.08844552"
       id="path3759"
       cx="16.667587"
       cy="260.89832"
       rx="0.57722926"
       ry="0.53903437" />
    <path
       style="fill:#ff7f2a;stroke-width:0.23636167"
       id="path3779"
       d="m 18.087179,261.36228 c 0.112351,0.14847 0.253161,0.28187 0.388322,0.41703 0.243329,0.24332 0.3177,0.32265 0.595861,0.56542 0.133204,0.11625 0.272134,0.22824 0.408201,0.34237 0.671375,0.55914 1.430927,1.04169 2.18352,1.52773 0.891736,0.57592 0.401987,0.273 1.337959,0.82951 1.291383,0.70608 2.598999,1.39576 3.93494,2.04733 0.307496,0.14996 0.619009,0.29462 0.928513,0.44194 1.333381,0.63199 2.698134,1.22494 4.104418,1.74763 0.351824,0.13076 0.704231,0.26089 1.0624,0.38018 0.343527,0.11441 0.694624,0.21376 1.041937,0.32065 1.352881,0.40171 2.759937,0.65855 4.189973,0.80469 0.340995,0.0349 0.682519,0.0693 1.025628,0.0865 0.355198,0.0177 0.711629,0.012 1.067443,0.0181 0.349483,-0.0148 0.700445,-0.015 1.048444,-0.0446 1.033893,-0.0881 2.053976,-0.30082 2.9938,-0.65876 0.930058,-0.35421 0.756176,-0.25404 1.227836,-0.64072 0.279265,-0.18536 0.558527,-0.37073 0.837792,-0.55611 0,0 0.722114,-0.23264 0.722114,-0.23264 v 0 c -0.281088,0.18767 -0.562176,0.37534 -0.843261,0.56301 -0.880441,0.46191 -1.624005,0.90341 -2.562903,1.25459 -0.946438,0.354 -1.971836,0.55989 -3.010177,0.64257 -0.347991,0.0277 -0.698686,0.0259 -1.048026,0.0389 -0.359436,-0.006 -0.719568,2.1e-4 -1.078309,-0.0188 -0.342029,-0.0179 -0.68213,-0.0555 -1.02185,-0.0919 -0.670631,-0.0719 -1.464225,-0.17877 -2.12104,-0.30711 -0.782804,-0.15294 -1.30479,-0.30775 -2.070722,-0.51331 -0.345241,-0.10917 -0.693557,-0.21233 -1.035722,-0.3275 -1.792351,-0.60331 -3.497601,-1.35823 -5.184851,-2.12664 -0.313505,-0.14588 -0.62959,-0.2883 -0.940516,-0.43764 -0.291113,-0.13985 -0.577227,-0.28624 -0.865417,-0.42989 -1.044947,-0.52086 -2.09304,-1.03976 -3.098317,-1.60886 -0.89239,-0.52519 -0.499526,-0.28395 -1.352658,-0.82511 -0.763523,-0.48432 -1.528837,-0.96873 -2.220583,-1.51931 -0.311517,-0.24982 -0.490556,-0.38773 -0.783245,-0.64306 -0.09237,-0.0806 -0.179614,-0.16481 -0.27048,-0.24646 -0.14494,-0.13025 -0.297589,-0.25583 -0.428678,-0.39553 0,0 0.837654,-0.40427 0.837654,-0.40427 z"
       inkscape:connector-curvature="0" />
    <path
       style="fill:#ff7f2a;stroke-width:0.26458332"
       id="path3801"
       d="m 16.936388,260.97628 c 0.01816,0.0108 0.03686,0.0207 0.05448,0.0324 0.04781,0.0316 0.159441,0.11393 0.199872,0.14293 0.06547,0.047 0.275242,0.19456 0.329551,0.23729 0.07245,0.057 0.141356,0.11838 0.212034,0.17757 0.295938,0.25135 0.254309,0.21048 0.560902,0.49664 0.115484,0.10779 0.23169,0.21489 0.343795,0.32618 0.359093,0.3565 0.690982,0.73835 1.023641,1.11912 0.473759,0.53206 0.884454,1.1219 1.169906,1.77674 0.04603,0.10559 0.08415,0.21447 0.126221,0.32171 0.150972,0.4296 0.26916,0.8705 0.378521,1.31238 0.03522,0.13502 0.05537,0.27284 0.06083,0.41209 2.64e-4,0.0145 5.55e-4,0.0292 8.2e-4,0.0437 0,0 -0.617436,0.31496 -0.617436,0.31496 v 0 c 1.39e-4,-0.0143 2.91e-4,-0.0286 4.23e-4,-0.0429 -7.41e-4,-0.13711 -0.01253,-0.27363 -0.03963,-0.40825 -0.08614,-0.44707 -0.193369,-0.89133 -0.337941,-1.32326 -0.107441,-0.28361 -0.13321,-0.37196 -0.269599,-0.64752 -0.260503,-0.52636 -0.600135,-1.00839 -0.988358,-1.44816 -0.329844,-0.38045 -0.661871,-0.7611 -1.025412,-1.11036 -0.295549,-0.28394 -0.613165,-0.54573 -0.935261,-0.79864 -0.07284,-0.0562 -0.144185,-0.11432 -0.218513,-0.1685 -0.19568,-0.14262 -0.403538,-0.27056 -0.612601,-0.39231 0,0 0.583747,-0.37376 0.583747,-0.37376 z"
       inkscape:connector-curvature="0" />
    <path
       style="fill:#ff7f2a;stroke-width:0.26458332"
       id="path3833"
       d="m 16.791896,260.35425 c 0.17853,0.089 -0.115351,-0.0591 0.13354,0.074 0.03446,0.0184 0.07111,0.0326 0.105192,0.0517 0.148145,0.0831 0.286278,0.18744 0.427006,0.28204 0.221757,0.16723 0.452505,0.32152 0.679363,0.48148 0.0975,0.0687 0.191906,0.14182 0.289556,0.21035 0.286241,0.20089 0.361418,0.24379 0.659152,0.433 0.454625,0.28986 0.918545,0.56542 1.410717,0.78735 0.311449,0.14043 0.379451,0.15714 0.700341,0.27104 0.563452,0.19565 1.13841,0.3571 1.717264,0.50019 0.294825,0.0802 0.596762,0.12814 0.901081,0.15129 0.08633,0.006 0.170455,0.0229 0.254686,0.0415 0,0 -0.568109,0.39427 -0.568109,0.39427 v 0 c -0.08019,-0.0175 -0.161076,-0.0309 -0.24271,-0.0399 -0.299215,-0.0356 -0.596454,-0.0897 -0.885931,-0.17458 -0.571701,-0.15314 -1.139023,-0.32376 -1.697079,-0.52115 -0.325667,-0.1181 -0.386693,-0.13237 -0.701917,-0.27827 -0.491252,-0.22738 -0.954202,-0.50749 -1.412229,-0.79453 -0.292767,-0.18434 -0.384156,-0.2383 -0.668341,-0.43121 -0.09885,-0.0671 -0.194845,-0.13837 -0.293909,-0.20517 -0.232516,-0.15677 -0.470519,-0.30557 -0.699422,-0.46782 -0.103562,-0.0652 -0.205121,-0.13362 -0.310089,-0.19652 -0.121148,-0.0726 -0.11618,-0.0639 -0.236809,-0.12116 -0.14135,-0.067 -0.02729,-0.0165 -0.141626,-0.0661 0,0 0.580273,-0.3818 0.580273,-0.3818 z"
       inkscape:connector-curvature="0" />
  </g>
</svg>
